solid Default
  facet normal 0.000000e+00 0.000000e+00 -1.000000e+00
    outer loop
      vertex -3.483006e+01 1.034986e+01 2.622604e-06
      vertex -3.813329e+01 1.274353e+00 2.622604e-06
      vertex -3.687869e+01 5.956602e+00 2.622604e-06
    endloop
  endfacet
  facet normal 0.000000e+00 0.000000e+00 -1.000000e+00
    outer loop
      vertex -3.483006e+01 1.034986e+01 2.622604e-06
      vertex -3.855577e+01 -1.996956e+01 2.622604e-06
      vertex -3.813329e+01 1.274353e+00 2.622604e-06
    endloop
  endfacet
  facet normal 0.000000e+00 0.000000e+00 -1.000000e+00
    outer loop
      vertex -2.862205e+01 1.774830e+01 2.622604e-06
      vertex -3.483006e+01 1.034986e+01 2.622604e-06
      vertex -3.204970e+01 1.432065e+01 2.622604e-06
    endloop
  endfacet
  facet normal 0.000000e+00 0.000000e+00 -1.000000e+00
    outer loop
      vertex -2.862205e+01 1.774830e+01 2.622604e-06
      vertex -3.855577e+01 -1.996956e+01 2.622604e-06
      vertex -3.483006e+01 1.034986e+01 2.622604e-06
    endloop
  endfacet
  facet normal 1.949533e-06 -2.784227e-06 -1.000000e+00
    outer loop
      vertex -2.025800e+01 2.257728e+01 5.483627e-06
      vertex -2.862205e+01 1.774830e+01 2.622604e-06
      vertex -2.465126e+01 2.052867e+01 2.622604e-06
    endloop
  endfacet
  facet normal 4.034016e-07 -1.062436e-07 -1.000000e+00
    outer loop
      vertex -2.025800e+01 2.257728e+01 5.483627e-06
      vertex -3.855577e+01 -1.996956e+01 2.622604e-06
      vertex -2.862205e+01 1.774830e+01 2.622604e-06
    endloop
  endfacet
  facet normal 3.176153e-08 -1.185355e-07 -1.000000e+00
    outer loop
      vertex -1.074676e+01 -1.912430e+01 1.072884e-05
      vertex -2.025800e+01 2.257728e+01 5.483627e-06
      vertex -1.557573e+01 2.383189e+01 5.483627e-06
    endloop
  endfacet
  facet normal 2.932865e-07 -5.888724e-08 -1.000000e+00
    outer loop
      vertex -1.074676e+01 -1.912430e+01 1.072884e-05
      vertex -3.855577e+01 -1.996956e+01 2.622604e-06
      vertex -2.025800e+01 2.257728e+01 5.483627e-06
    endloop
  endfacet
  facet normal 0.000000e+00 0.000000e+00 -1.000000e+00
    outer loop
      vertex -3.855577e+01 -3.554638e+00 2.622604e-06
      vertex -3.813329e+01 1.274353e+00 2.622604e-06
      vertex -3.855577e+01 -1.996956e+01 2.622604e-06
    endloop
  endfacet
  facet normal 5.483863e-07 -6.045843e-08 -1.000000e+00
    outer loop
      vertex -1.557573e+01 2.383189e+01 5.483627e-06
      vertex -1.074675e+01 2.425436e+01 8.106232e-06
      vertex -1.074676e+01 -1.912430e+01 1.072884e-05
    endloop
  endfacet
  facet normal -2.217430e-08 -1.000000e+00 -0.000000e+00
    outer loop
      vertex -4.307526e+01 -3.144160e+01 2.106721e+00
      vertex -4.307526e+01 -3.144160e+01 0.000000e+00
      vertex 4.294092e+01 -3.144160e+01 2.145767e-05
    endloop
  endfacet
  facet normal -2.217430e-08 -1.000000e+00 0.000000e+00
    outer loop
      vertex 4.294092e+01 -3.144160e+01 2.145767e-05
      vertex 4.294092e+01 -3.144160e+01 2.106742e+00
      vertex -4.307526e+01 -3.144160e+01 2.106721e+00
    endloop
  endfacet
  facet normal -1.907794e-07 -6.950497e-01 7.189617e-01
    outer loop
      vertex -4.307526e+01 -2.926240e+01 4.213443e+00
      vertex -4.307526e+01 -3.144160e+01 2.106721e+00
      vertex 4.294092e+01 -3.144160e+01 2.106742e+00
    endloop
  endfacet
  facet normal -1.092028e-07 -6.950480e-01 7.189633e-01
    outer loop
      vertex 4.294092e+01 -3.144160e+01 2.106742e+00
      vertex 4.294092e+01 -2.926239e+01 4.213461e+00
      vertex -4.307526e+01 -2.926240e+01 4.213443e+00
    endloop
  endfacet
  facet normal 2.494609e-07 0.000000e+00 -1.000000e+00
    outer loop
      vertex 4.294092e+01 -3.144160e+01 2.145767e-05
      vertex -4.307526e+01 -3.144160e+01 0.000000e+00
      vertex -4.307526e+01 -2.926240e+01 0.000000e+00
    endloop
  endfacet
  facet normal 2.494609e-07 0.000000e+00 -1.000000e+00
    outer loop
      vertex -4.307526e+01 -2.926240e+01 0.000000e+00
      vertex 4.294092e+01 -2.926239e+01 2.145767e-05
      vertex 4.294092e+01 -3.144160e+01 2.145767e-05
    endloop
  endfacet
  facet normal -1.000000e+00 0.000000e+00 0.000000e+00
    outer loop
      vertex -4.307526e+01 -3.144160e+01 0.000000e+00
      vertex -4.307526e+01 -3.144160e+01 2.106721e+00
      vertex -4.307526e+01 -2.926240e+01 2.106721e+00
    endloop
  endfacet
  facet normal -1.000000e+00 0.000000e+00 0.000000e+00
    outer loop
      vertex -4.307526e+01 -2.926240e+01 0.000000e+00
      vertex -4.307526e+01 -3.144160e+01 0.000000e+00
      vertex -4.307526e+01 -2.926240e+01 2.106721e+00
    endloop
  endfacet
  facet normal -1.000000e+00 0.000000e+00 0.000000e+00
    outer loop
      vertex -4.307526e+01 -2.926240e+01 4.213443e+00
      vertex -4.307526e+01 -2.926240e+01 2.106721e+00
      vertex -4.307526e+01 -3.144160e+01 2.106721e+00
    endloop
  endfacet
  facet normal 1.000000e+00 0.000000e+00 0.000000e+00
    outer loop
      vertex 4.294092e+01 -3.144160e+01 2.106742e+00
      vertex 4.294092e+01 -3.144160e+01 2.145767e-05
      vertex 4.294092e+01 -2.926239e+01 2.145767e-05
    endloop
  endfacet
  facet normal 1.000000e+00 0.000000e+00 0.000000e+00
    outer loop
      vertex 4.294092e+01 -2.926239e+01 2.145767e-05
      vertex 4.294092e+01 -2.926239e+01 2.106742e+00
      vertex 4.294092e+01 -3.144160e+01 2.106742e+00
    endloop
  endfacet
  facet normal 1.000000e+00 0.000000e+00 0.000000e+00
    outer loop
      vertex 4.294092e+01 -2.926239e+01 4.213461e+00
      vertex 4.294092e+01 -3.144160e+01 2.106742e+00
      vertex 4.294092e+01 -2.926239e+01 2.106742e+00
    endloop
  endfacet
  facet normal 9.184913e-01 3.954412e-01 0.000000e+00
    outer loop
      vertex 4.643526e+01 -2.926239e+01 2.145767e-05
      vertex 4.504653e+01 -2.603679e+01 2.145767e-05
      vertex 4.504653e+01 -2.603679e+01 2.105621e+00
    endloop
  endfacet
  facet normal 9.184913e-01 3.954412e-01 0.000000e+00
    outer loop
      vertex 4.504653e+01 -2.603679e+01 2.105621e+00
      vertex 4.643526e+01 -2.926239e+01 2.105623e+00
      vertex 4.643526e+01 -2.926239e+01 2.145767e-05
    endloop
  endfacet
  facet normal 0.000000e+00 6.652302e-07 1.000000e+00
    outer loop
      vertex 4.643526e+01 -2.926239e+01 2.105623e+00
      vertex 4.504653e+01 -2.603679e+01 2.105621e+00
      vertex 4.294092e+01 -2.603679e+01 2.105621e+00
    endloop
  endfacet
  facet normal -6.140696e-07 0.000000e+00 1.000000e+00
    outer loop
      vertex 4.294092e+01 -2.603679e+01 2.105621e+00
      vertex 4.294092e+01 -2.926239e+01 2.105621e+00
      vertex 4.643526e+01 -2.926239e+01 2.105623e+00
    endloop
  endfacet
  facet normal 0.000000e+00 -1.000000e+00 0.000000e+00
    outer loop
      vertex 4.643526e+01 -2.926239e+01 2.145767e-05
      vertex 4.643526e+01 -2.926239e+01 2.105623e+00
      vertex 4.294092e+01 -2.926239e+01 2.105621e+00
    endloop
  endfacet
  facet normal 0.000000e+00 -1.000000e+00 0.000000e+00
    outer loop
      vertex 4.294092e+01 -2.926239e+01 2.105621e+00
      vertex 4.294092e+01 -2.926239e+01 2.145767e-05
      vertex 4.643526e+01 -2.926239e+01 2.145767e-05
    endloop
  endfacet
  facet normal 0.000000e+00 0.000000e+00 -1.000000e+00
    outer loop
      vertex 4.504653e+01 -2.603679e+01 2.145767e-05
      vertex 4.643526e+01 -2.926239e+01 2.145767e-05
      vertex 4.294092e+01 -2.926239e+01 2.145767e-05
    endloop
  endfacet
  facet normal 0.000000e+00 0.000000e+00 -1.000000e+00
    outer loop
      vertex 4.294092e+01 -2.926239e+01 2.145767e-05
      vertex 4.294092e+01 -2.603679e+01 2.145767e-05
      vertex 4.504653e+01 -2.603679e+01 2.145767e-05
    endloop
  endfacet
  facet normal 0.000000e+00 1.000000e+00 0.000000e+00
    outer loop
      vertex 4.504653e+01 -2.603679e+01 2.105621e+00
      vertex 4.504653e+01 -2.603679e+01 2.145767e-05
      vertex 4.294092e+01 -2.603679e+01 2.145767e-05
    endloop
  endfacet
  facet normal 0.000000e+00 1.000000e+00 0.000000e+00
    outer loop
      vertex 4.294092e+01 -2.603679e+01 2.145767e-05
      vertex 4.294092e+01 -2.603679e+01 2.105621e+00
      vertex 4.504653e+01 -2.603679e+01 2.105621e+00
    endloop
  endfacet
  facet normal 2.182069e-07 0.000000e+00 -1.000000e+00
    outer loop
      vertex 4.294092e+01 -2.926239e+01 2.145767e-05
      vertex -6.227263e+00 -2.603679e+01 1.072884e-05
      vertex 4.294092e+01 -2.603679e+01 2.145767e-05
    endloop
  endfacet
  facet normal 2.494608e-07 4.764080e-07 -1.000000e+00
    outer loop
      vertex 4.294092e+01 -2.926239e+01 2.145767e-05
      vertex -4.307526e+01 -2.926240e+01 0.000000e+00
      vertex -6.227263e+00 -2.603679e+01 1.072884e-05
    endloop
  endfacet
  facet normal 2.911647e-07 0.000000e+00 -1.000000e+00
    outer loop
      vertex -4.307526e+01 -2.715679e+01 0.000000e+00
      vertex -6.227263e+00 -2.603679e+01 1.072884e-05
      vertex -4.307526e+01 -2.926240e+01 0.000000e+00
    endloop
  endfacet
  facet normal 2.550044e-07 0.000000e+00 -1.000000e+00
    outer loop
      vertex 4.294092e+01 -2.844192e+01 5.893462e+00
      vertex 4.294092e+01 -2.926239e+01 5.893462e+00
      vertex -4.307526e+01 -2.926240e+01 5.893440e+00
    endloop
  endfacet
  facet normal 2.230564e-07 3.349322e-06 -1.000000e+00
    outer loop
      vertex -4.307526e+01 -2.926240e+01 5.893440e+00
      vertex -6.227265e+00 -2.844191e+01 5.893451e+00
      vertex 4.294092e+01 -2.844192e+01 5.893462e+00
    endloop
  endfacet
  facet normal -2.242777e-07 1.410310e-07 1.000000e+00
    outer loop
      vertex -6.227264e+00 -2.603679e+01 2.105610e+00
      vertex -3.855577e+01 -1.996956e+01 2.105602e+00
      vertex -4.307526e+01 -2.715679e+01 2.105602e+00
    endloop
  endfacet
  facet normal -2.858166e-07 -1.868713e-07 1.000000e+00
    outer loop
      vertex -6.227264e+00 -2.603679e+01 2.105610e+00
      vertex -1.074676e+01 -1.912430e+01 2.105610e+00
      vertex -3.855577e+01 -1.996956e+01 2.105602e+00
    endloop
  endfacet
  facet normal 2.858166e-07 1.868713e-07 -1.000000e+00
    outer loop
      vertex -3.855577e+01 -1.996956e+01 2.622604e-06
      vertex -1.074676e+01 -1.912430e+01 1.072884e-05
      vertex -6.227263e+00 -2.603679e+01 1.072884e-05
    endloop
  endfacet
  facet normal 2.855310e-07 1.853495e-07 -1.000000e+00
    outer loop
      vertex -6.227263e+00 -2.603679e+01 1.072884e-05
      vertex -4.307526e+01 -2.715679e+01 0.000000e+00
      vertex -3.855577e+01 -1.996956e+01 2.622604e-06
    endloop
  endfacet
  facet normal -3.038100e-02 9.995384e-01 0.000000e+00
    outer loop
      vertex -1.074676e+01 -1.912430e+01 2.105610e+00
      vertex -1.074676e+01 -1.912430e+01 1.072884e-05
      vertex -3.855577e+01 -1.996956e+01 2.622604e-06
    endloop
  endfacet
  facet normal -3.038100e-02 9.995384e-01 0.000000e+00
    outer loop
      vertex -3.855577e+01 -1.996956e+01 2.622604e-06
      vertex -3.855577e+01 -1.996956e+01 2.105602e+00
      vertex -1.074676e+01 -1.912430e+01 2.105610e+00
    endloop
  endfacet
  facet normal -1.000000e+00 4.396974e-08 0.000000e+00
    outer loop
      vertex -1.074676e+01 -1.912430e+01 1.072884e-05
      vertex -1.074676e+01 -1.912430e+01 2.105610e+00
      vertex -1.074675e+01 2.425436e+01 2.105607e+00
    endloop
  endfacet
  facet normal -1.000000e+00 6.595458e-08 -4.529230e-07
    outer loop
      vertex -1.074675e+01 2.425436e+01 2.105607e+00
      vertex -1.074675e+01 2.425436e+01 8.106232e-06
      vertex -1.074676e+01 -1.912430e+01 1.072884e-05
    endloop
  endfacet
  facet normal 8.715353e-02 -9.961949e-01 3.947384e-08
    outer loop
      vertex -1.074675e+01 2.425436e+01 8.106232e-06
      vertex -1.074675e+01 2.425436e+01 2.105607e+00
      vertex -1.557573e+01 2.383189e+01 2.105605e+00
    endloop
  endfacet
  facet normal 8.715352e-02 -9.961949e-01 0.000000e+00
    outer loop
      vertex -1.557573e+01 2.383189e+01 2.105605e+00
      vertex -1.557573e+01 2.383189e+01 5.483627e-06
      vertex -1.074675e+01 2.425436e+01 8.106232e-06
    endloop
  endfacet
  facet normal 2.588194e-01 -9.659258e-01 0.000000e+00
    outer loop
      vertex -1.557573e+01 2.383189e+01 5.483627e-06
      vertex -1.557573e+01 2.383189e+01 2.105605e+00
      vertex -2.025800e+01 2.257728e+01 2.105605e+00
    endloop
  endfacet
  facet normal 2.588194e-01 -9.659258e-01 0.000000e+00
    outer loop
      vertex -2.025800e+01 2.257728e+01 2.105605e+00
      vertex -2.025800e+01 2.257728e+01 5.483627e-06
      vertex -1.557573e+01 2.383189e+01 5.483627e-06
    endloop
  endfacet
  facet normal 4.226179e-01 -9.063079e-01 0.000000e+00
    outer loop
      vertex -2.025800e+01 2.257728e+01 5.483627e-06
      vertex -2.025800e+01 2.257728e+01 2.105605e+00
      vertex -2.465126e+01 2.052867e+01 2.105605e+00
    endloop
  endfacet
  facet normal 4.226179e-01 -9.063079e-01 0.000000e+00
    outer loop
      vertex -2.465126e+01 2.052867e+01 2.105605e+00
      vertex -2.465126e+01 2.052867e+01 2.622604e-06
      vertex -2.025800e+01 2.257728e+01 5.483627e-06
    endloop
  endfacet
  facet normal 5.735759e-01 -8.191524e-01 0.000000e+00
    outer loop
      vertex -2.465126e+01 2.052867e+01 2.622604e-06
      vertex -2.465126e+01 2.052867e+01 2.105605e+00
      vertex -2.862205e+01 1.774830e+01 2.105602e+00
    endloop
  endfacet
  facet normal 5.735759e-01 -8.191524e-01 0.000000e+00
    outer loop
      vertex -2.862205e+01 1.774830e+01 2.105602e+00
      vertex -2.862205e+01 1.774830e+01 2.622604e-06
      vertex -2.465126e+01 2.052867e+01 2.622604e-06
    endloop
  endfacet
  facet normal 7.071075e-01 -7.071060e-01 0.000000e+00
    outer loop
      vertex -2.862205e+01 1.774830e+01 2.622604e-06
      vertex -2.862205e+01 1.774830e+01 2.105602e+00
      vertex -3.204970e+01 1.432065e+01 2.105602e+00
    endloop
  endfacet
  facet normal 7.071075e-01 -7.071060e-01 0.000000e+00
    outer loop
      vertex -3.204970e+01 1.432065e+01 2.105602e+00
      vertex -3.204970e+01 1.432065e+01 2.622604e-06
      vertex -2.862205e+01 1.774830e+01 2.622604e-06
    endloop
  endfacet
  facet normal 8.191524e-01 -5.735760e-01 0.000000e+00
    outer loop
      vertex -3.204970e+01 1.432065e+01 2.622604e-06
      vertex -3.204970e+01 1.432065e+01 2.105602e+00
      vertex -3.483006e+01 1.034986e+01 2.105602e+00
    endloop
  endfacet
  facet normal 8.191524e-01 -5.735760e-01 0.000000e+00
    outer loop
      vertex -3.483006e+01 1.034986e+01 2.105602e+00
      vertex -3.483006e+01 1.034986e+01 2.622604e-06
      vertex -3.204970e+01 1.432065e+01 2.622604e-06
    endloop
  endfacet
  facet normal 9.063069e-01 -4.226201e-01 0.000000e+00
    outer loop
      vertex -3.483006e+01 1.034986e+01 2.622604e-06
      vertex -3.483006e+01 1.034986e+01 2.105602e+00
      vertex -3.687869e+01 5.956602e+00 2.105602e+00
    endloop
  endfacet
  facet normal 9.063069e-01 -4.226201e-01 0.000000e+00
    outer loop
      vertex -3.687869e+01 5.956602e+00 2.105602e+00
      vertex -3.687869e+01 5.956602e+00 2.622604e-06
      vertex -3.483006e+01 1.034986e+01 2.622604e-06
    endloop
  endfacet
  facet normal 9.659261e-01 -2.588182e-01 0.000000e+00
    outer loop
      vertex -3.687869e+01 5.956602e+00 2.622604e-06
      vertex -3.687869e+01 5.956602e+00 2.105602e+00
      vertex -3.813329e+01 1.274353e+00 2.105602e+00
    endloop
  endfacet
  facet normal 9.659261e-01 -2.588182e-01 0.000000e+00
    outer loop
      vertex -3.813329e+01 1.274353e+00 2.105602e+00
      vertex -3.813329e+01 1.274353e+00 2.622604e-06
      vertex -3.687869e+01 5.956602e+00 2.622604e-06
    endloop
  endfacet
  facet normal 9.961948e-01 -8.715487e-02 0.000000e+00
    outer loop
      vertex -3.813329e+01 1.274353e+00 2.622604e-06
      vertex -3.813329e+01 1.274353e+00 2.105602e+00
      vertex -3.855577e+01 -3.554638e+00 2.105602e+00
    endloop
  endfacet
  facet normal 9.961948e-01 -8.715487e-02 0.000000e+00
    outer loop
      vertex -3.855577e+01 -3.554638e+00 2.105602e+00
      vertex -3.855577e+01 -3.554638e+00 2.622604e-06
      vertex -3.813329e+01 1.274353e+00 2.622604e-06
    endloop
  endfacet
  facet normal 1.000000e+00 -2.323921e-07 0.000000e+00
    outer loop
      vertex -3.855577e+01 -3.554638e+00 2.622604e-06
      vertex -3.855577e+01 -3.554638e+00 2.105602e+00
      vertex -3.855577e+01 -1.996956e+01 2.105602e+00
    endloop
  endfacet
  facet normal 1.000000e+00 -2.323921e-07 0.000000e+00
    outer loop
      vertex -3.855577e+01 -1.996956e+01 2.105602e+00
      vertex -3.855577e+01 -1.996956e+01 2.622604e-06
      vertex -3.855577e+01 -3.554638e+00 2.622604e-06
    endloop
  endfacet
  facet normal -6.565771e-07 5.744247e-08 1.000000e+00
    outer loop
      vertex -3.855577e+01 -3.554638e+00 2.105602e+00
      vertex -3.813329e+01 1.274353e+00 2.105602e+00
      vertex -4.251546e+01 9.921923e-01 2.105599e+00
    endloop
  endfacet
  facet normal -6.565758e-07 5.744362e-08 1.000000e+00
    outer loop
      vertex -4.251546e+01 9.921923e-01 2.105599e+00
      vertex -4.307527e+01 -5.406396e+00 2.105599e+00
      vertex -3.855577e+01 -3.554638e+00 2.105602e+00
    endloop
  endfacet
  facet normal -6.643406e-07 1.780089e-07 1.000000e+00
    outer loop
      vertex -3.813329e+01 1.274353e+00 2.105602e+00
      vertex -3.687869e+01 5.956602e+00 2.105602e+00
      vertex -4.085306e+01 7.196362e+00 2.105599e+00
    endloop
  endfacet
  facet normal -6.643402e-07 1.780091e-07 1.000000e+00
    outer loop
      vertex -4.085306e+01 7.196362e+00 2.105599e+00
      vertex -4.251546e+01 9.921923e-01 2.105599e+00
      vertex -3.813329e+01 1.274353e+00 2.105602e+00
    endloop
  endfacet
  facet normal -6.284509e-07 2.930531e-07 1.000000e+00
    outer loop
      vertex -3.687869e+01 5.956602e+00 2.105602e+00
      vertex -3.483006e+01 1.034986e+01 2.105602e+00
      vertex -3.813857e+01 1.301761e+01 2.105599e+00
    endloop
  endfacet
  facet normal -6.284541e-07 2.930525e-07 1.000000e+00
    outer loop
      vertex -3.813857e+01 1.301761e+01 2.105599e+00
      vertex -4.085306e+01 7.196362e+00 2.105599e+00
      vertex -3.687869e+01 5.956602e+00 2.105602e+00
    endloop
  endfacet
  facet normal 0.000000e+00 0.000000e+00 1.000000e+00
    outer loop
      vertex -3.483006e+01 1.034986e+01 2.105602e+00
      vertex -3.204970e+01 1.432065e+01 2.105602e+00
      vertex -3.445446e+01 1.827904e+01 2.105602e+00
    endloop
  endfacet
  facet normal -8.329342e-07 3.945584e-08 1.000000e+00
    outer loop
      vertex -3.445446e+01 1.827904e+01 2.105602e+00
      vertex -3.813857e+01 1.301761e+01 2.105599e+00
      vertex -3.483006e+01 1.034986e+01 2.105602e+00
    endloop
  endfacet
  facet normal 0.000000e+00 0.000000e+00 1.000000e+00
    outer loop
      vertex -3.204970e+01 1.432065e+01 2.105602e+00
      vertex -2.862205e+01 1.774830e+01 2.105602e+00
      vertex -2.991269e+01 2.282080e+01 2.105602e+00
    endloop
  endfacet
  facet normal 0.000000e+00 0.000000e+00 1.000000e+00
    outer loop
      vertex -2.991269e+01 2.282080e+01 2.105602e+00
      vertex -3.445446e+01 1.827904e+01 2.105602e+00
      vertex -3.204970e+01 1.432065e+01 2.105602e+00
    endloop
  endfacet
  facet normal -7.805623e-07 2.491208e-13 1.000000e+00
    outer loop
      vertex -2.862205e+01 1.774830e+01 2.105602e+00
      vertex -2.465126e+01 2.052867e+01 2.105605e+00
      vertex -2.465126e+01 2.650491e+01 2.105605e+00
    endloop
  endfacet
  facet normal -5.000056e-07 -1.272215e-07 1.000000e+00
    outer loop
      vertex -2.465126e+01 2.650491e+01 2.105605e+00
      vertex -2.991269e+01 2.282080e+01 2.105602e+00
      vertex -2.862205e+01 1.774830e+01 2.105602e+00
    endloop
  endfacet
  facet normal 0.000000e+00 0.000000e+00 1.000000e+00
    outer loop
      vertex -2.465126e+01 2.052867e+01 2.105605e+00
      vertex -2.025800e+01 2.257728e+01 2.105605e+00
      vertex -1.883002e+01 2.921939e+01 2.105605e+00
    endloop
  endfacet
  facet normal 0.000000e+00 0.000000e+00 1.000000e+00
    outer loop
      vertex -1.883002e+01 2.921939e+01 2.105605e+00
      vertex -2.465126e+01 2.650491e+01 2.105605e+00
      vertex -2.465126e+01 2.052867e+01 2.105605e+00
    endloop
  endfacet
  facet normal 8.164780e-08 -3.047134e-07 1.000000e+00
    outer loop
      vertex -2.025800e+01 2.257728e+01 2.105605e+00
      vertex -1.557573e+01 2.383189e+01 2.105605e+00
      vertex -1.262585e+01 3.088180e+01 2.105607e+00
    endloop
  endfacet
  facet normal -3.262225e-07 7.013394e-08 1.000000e+00
    outer loop
      vertex -1.262585e+01 3.088180e+01 2.105607e+00
      vertex -1.883002e+01 2.921939e+01 2.105605e+00
      vertex -2.025800e+01 2.257728e+01 2.105605e+00
    endloop
  endfacet
  facet normal -4.179739e-07 2.628313e-07 1.000000e+00
    outer loop
      vertex -1.557573e+01 2.383189e+01 2.105605e+00
      vertex -1.074675e+01 2.425436e+01 2.105607e+00
      vertex -6.227262e+00 3.144160e+01 2.105607e+00
    endloop
  endfacet
  facet normal 2.456923e-08 -2.808301e-07 1.000000e+00
    outer loop
      vertex -6.227262e+00 3.144160e+01 2.105607e+00
      vertex -1.262585e+01 3.088180e+01 2.105607e+00
      vertex -1.557573e+01 2.383189e+01 2.105605e+00
    endloop
  endfacet
  facet normal 1.092829e-07 7.145082e-08 1.000000e+00
    outer loop
      vertex -6.227264e+00 -2.603679e+01 2.105610e+00
      vertex -1.074675e+01 2.425436e+01 2.105607e+00
      vertex -1.074676e+01 -1.912430e+01 2.105610e+00
    endloop
  endfacet
  facet normal -8.575332e-08 5.392360e-08 1.000000e+00
    outer loop
      vertex -6.227264e+00 -2.603679e+01 2.105610e+00
      vertex -6.227262e+00 3.144160e+01 2.105607e+00
      vertex -1.074675e+01 2.425436e+01 2.105607e+00
    endloop
  endfacet
  facet normal 9.614547e-08 -6.045840e-08 -1.000000e+00
    outer loop
      vertex -1.074676e+01 -1.912430e+01 1.072884e-05
      vertex -1.074675e+01 2.425436e+01 8.106232e-06
      vertex -6.227262e+00 3.144160e+01 8.106232e-06
    endloop
  endfacet
  facet normal -6.978675e-08 -4.562766e-08 -1.000000e+00
    outer loop
      vertex -6.227262e+00 3.144160e+01 8.106232e-06
      vertex -6.227263e+00 -2.603679e+01 1.072884e-05
      vertex -1.074676e+01 -1.912430e+01 1.072884e-05
    endloop
  endfacet
  facet normal 5.299514e-07 1.502589e-07 -1.000000e+00
    outer loop
      vertex -1.074675e+01 2.425436e+01 8.106232e-06
      vertex -1.557573e+01 2.383189e+01 5.483627e-06
      vertex -1.262585e+01 3.088180e+01 8.106232e-06
    endloop
  endfacet
  facet normal 0.000000e+00 0.000000e+00 -1.000000e+00
    outer loop
      vertex -1.262585e+01 3.088180e+01 8.106232e-06
      vertex -6.227262e+00 3.144160e+01 8.106232e-06
      vertex -1.074675e+01 2.425436e+01 8.106232e-06
    endloop
  endfacet
  facet normal 0.000000e+00 0.000000e+00 -1.000000e+00
    outer loop
      vertex -1.557573e+01 2.383189e+01 5.483627e-06
      vertex -2.025800e+01 2.257728e+01 5.483627e-06
      vertex -1.883002e+01 2.921939e+01 5.483627e-06
    endloop
  endfacet
  facet normal 3.638291e-07 2.197692e-07 -1.000000e+00
    outer loop
      vertex -1.883002e+01 2.921939e+01 5.483627e-06
      vertex -1.262585e+01 3.088180e+01 8.106232e-06
      vertex -1.557573e+01 2.383189e+01 5.483627e-06
    endloop
  endfacet
  facet normal 6.512289e-07 -2.078433e-13 -1.000000e+00
    outer loop
      vertex -2.025800e+01 2.257728e+01 5.483627e-06
      vertex -2.465126e+01 2.052867e+01 2.622604e-06
      vertex -2.465126e+01 2.650491e+01 2.622604e-06
    endloop
  endfacet
  facet normal 5.462409e-07 -1.174352e-07 -1.000000e+00
    outer loop
      vertex -2.465126e+01 2.650491e+01 2.622604e-06
      vertex -1.883002e+01 2.921939e+01 5.483627e-06
      vertex -2.025800e+01 2.257728e+01 5.483627e-06
    endloop
  endfacet
  facet normal 0.000000e+00 0.000000e+00 -1.000000e+00
    outer loop
      vertex -2.465126e+01 2.052867e+01 2.622604e-06
      vertex -2.862205e+01 1.774830e+01 2.622604e-06
      vertex -2.991269e+01 2.282080e+01 2.622604e-06
    endloop
  endfacet
  facet normal 0.000000e+00 0.000000e+00 -1.000000e+00
    outer loop
      vertex -2.991269e+01 2.282080e+01 2.622604e-06
      vertex -2.465126e+01 2.650491e+01 2.622604e-06
      vertex -2.465126e+01 2.052867e+01 2.622604e-06
    endloop
  endfacet
  facet normal 0.000000e+00 0.000000e+00 -1.000000e+00
    outer loop
      vertex -2.862205e+01 1.774830e+01 2.622604e-06
      vertex -3.204970e+01 1.432065e+01 2.622604e-06
      vertex -3.445446e+01 1.827904e+01 2.622604e-06
    endloop
  endfacet
  facet normal 0.000000e+00 0.000000e+00 -1.000000e+00
    outer loop
      vertex -3.445446e+01 1.827904e+01 2.622604e-06
      vertex -2.991269e+01 2.282080e+01 2.622604e-06
      vertex -2.862205e+01 1.774830e+01 2.622604e-06
    endloop
  endfacet
  facet normal 5.066389e-07 -3.547519e-07 -1.000000e+00
    outer loop
      vertex -3.204970e+01 1.432065e+01 2.622604e-06
      vertex -3.483006e+01 1.034986e+01 2.622604e-06
      vertex -3.813857e+01 1.301761e+01 0.000000e+00
    endloop
  endfacet
  facet normal 3.811660e-07 2.315624e-07 -1.000000e+00
    outer loop
      vertex -3.813857e+01 1.301761e+01 0.000000e+00
      vertex -3.445446e+01 1.827904e+01 2.622604e-06
      vertex -3.204970e+01 1.432065e+01 2.622604e-06
    endloop
  endfacet
  facet normal 5.760824e-07 -2.686330e-07 -1.000000e+00
    outer loop
      vertex -3.483006e+01 1.034986e+01 2.622604e-06
      vertex -3.687869e+01 5.956602e+00 2.622604e-06
      vertex -4.085306e+01 7.196362e+00 0.000000e+00
    endloop
  endfacet
  facet normal 5.760811e-07 -2.686306e-07 -1.000000e+00
    outer loop
      vertex -4.085306e+01 7.196362e+00 0.000000e+00
      vertex -3.813857e+01 1.301761e+01 0.000000e+00
      vertex -3.483006e+01 1.034986e+01 2.622604e-06
    endloop
  endfacet
  facet normal 6.089785e-07 -1.631747e-07 -1.000000e+00
    outer loop
      vertex -3.687869e+01 5.956602e+00 2.622604e-06
      vertex -3.813329e+01 1.274353e+00 2.622604e-06
      vertex -4.251546e+01 9.921923e-01 0.000000e+00
    endloop
  endfacet
  facet normal 6.089788e-07 -1.631751e-07 -1.000000e+00
    outer loop
      vertex -4.251546e+01 9.921923e-01 0.000000e+00
      vertex -4.085306e+01 7.196362e+00 0.000000e+00
      vertex -3.687869e+01 5.956602e+00 2.622604e-06
    endloop
  endfacet
  facet normal 6.018606e-07 -5.265546e-08 -1.000000e+00
    outer loop
      vertex -3.813329e+01 1.274353e+00 2.622604e-06
      vertex -3.855577e+01 -3.554638e+00 2.622604e-06
      vertex -4.307527e+01 -5.406396e+00 0.000000e+00
    endloop
  endfacet
  facet normal 6.018624e-07 -5.265677e-08 -1.000000e+00
    outer loop
      vertex -4.307527e+01 -5.406396e+00 0.000000e+00
      vertex -4.251546e+01 9.921923e-01 0.000000e+00
      vertex -3.813329e+01 1.274353e+00 2.622604e-06
    endloop
  endfacet
  facet normal -6.330397e-07 1.471134e-13 1.000000e+00
    outer loop
      vertex -3.855577e+01 -1.996956e+01 2.105602e+00
      vertex -3.855577e+01 -3.554638e+00 2.105602e+00
      vertex -4.307527e+01 -5.406396e+00 2.105599e+00
    endloop
  endfacet
  facet normal -2.091828e-07 1.315389e-07 1.000000e+00
    outer loop
      vertex -4.307527e+01 -5.406396e+00 2.105599e+00
      vertex -4.307526e+01 -2.715679e+01 2.105602e+00
      vertex -3.855577e+01 -1.996956e+01 2.105602e+00
    endloop
  endfacet
  facet normal 5.802875e-07 -1.348542e-13 -1.000000e+00
    outer loop
      vertex -3.855577e+01 -3.554638e+00 2.622604e-06
      vertex -3.855577e+01 -1.996956e+01 2.622604e-06
      vertex -4.307526e+01 -2.715679e+01 0.000000e+00
    endloop
  endfacet
  facet normal 5.802863e-07 1.017736e-13 -1.000000e+00
    outer loop
      vertex -4.307526e+01 -2.715679e+01 0.000000e+00
      vertex -4.307527e+01 -5.406396e+00 0.000000e+00
      vertex -3.855577e+01 -3.554638e+00 2.622604e-06
    endloop
  endfacet
  facet normal 1.000000e+00 -8.295938e-09 0.000000e+00
    outer loop
      vertex -6.227263e+00 -2.603679e+01 1.072884e-05
      vertex -6.227262e+00 3.144160e+01 8.106232e-06
      vertex -6.227262e+00 3.144160e+01 2.105607e+00
    endloop
  endfacet
  facet normal 1.000000e+00 -2.488779e-08 4.529229e-07
    outer loop
      vertex -6.227262e+00 3.144160e+01 2.105607e+00
      vertex -6.227264e+00 -2.603679e+01 2.105610e+00
      vertex -6.227263e+00 -2.603679e+01 1.072884e-05
    endloop
  endfacet
  facet normal -8.715498e-02 9.961948e-01 0.000000e+00
    outer loop
      vertex -6.227262e+00 3.144160e+01 8.106232e-06
      vertex -1.262585e+01 3.088180e+01 8.106232e-06
      vertex -1.262585e+01 3.088180e+01 2.105607e+00
    endloop
  endfacet
  facet normal -8.715498e-02 9.961948e-01 0.000000e+00
    outer loop
      vertex -1.262585e+01 3.088180e+01 2.105607e+00
      vertex -6.227262e+00 3.144160e+01 2.105607e+00
      vertex -6.227262e+00 3.144160e+01 8.106232e-06
    endloop
  endfacet
  facet normal -2.588203e-01 9.659255e-01 0.000000e+00
    outer loop
      vertex -1.262585e+01 3.088180e+01 8.106232e-06
      vertex -1.883002e+01 2.921939e+01 5.483627e-06
      vertex -1.883002e+01 2.921939e+01 2.105605e+00
    endloop
  endfacet
  facet normal -2.588203e-01 9.659255e-01 0.000000e+00
    outer loop
      vertex -1.883002e+01 2.921939e+01 2.105605e+00
      vertex -1.262585e+01 3.088180e+01 2.105607e+00
      vertex -1.262585e+01 3.088180e+01 8.106232e-06
    endloop
  endfacet
  facet normal -4.226173e-01 9.063082e-01 0.000000e+00
    outer loop
      vertex -1.883002e+01 2.921939e+01 5.483627e-06
      vertex -2.465126e+01 2.650491e+01 2.622604e-06
      vertex -2.465126e+01 2.650491e+01 2.105605e+00
    endloop
  endfacet
  facet normal -4.226173e-01 9.063082e-01 0.000000e+00
    outer loop
      vertex -2.465126e+01 2.650491e+01 2.105605e+00
      vertex -1.883002e+01 2.921939e+01 2.105605e+00
      vertex -1.883002e+01 2.921939e+01 5.483627e-06
    endloop
  endfacet
  facet normal -5.735772e-01 8.191515e-01 0.000000e+00
    outer loop
      vertex -2.465126e+01 2.650491e+01 2.622604e-06
      vertex -2.991269e+01 2.282080e+01 2.622604e-06
      vertex -2.991269e+01 2.282080e+01 2.105602e+00
    endloop
  endfacet
  facet normal -5.735772e-01 8.191515e-01 0.000000e+00
    outer loop
      vertex -2.991269e+01 2.282080e+01 2.105602e+00
      vertex -2.465126e+01 2.650491e+01 2.105605e+00
      vertex -2.465126e+01 2.650491e+01 2.622604e-06
    endloop
  endfacet
  facet normal -7.071065e-01 7.071071e-01 0.000000e+00
    outer loop
      vertex -2.991269e+01 2.282080e+01 2.622604e-06
      vertex -3.445446e+01 1.827904e+01 2.622604e-06
      vertex -3.445446e+01 1.827904e+01 2.105602e+00
    endloop
  endfacet
  facet normal -7.071065e-01 7.071071e-01 0.000000e+00
    outer loop
      vertex -3.445446e+01 1.827904e+01 2.105602e+00
      vertex -2.991269e+01 2.282080e+01 2.105602e+00
      vertex -2.991269e+01 2.282080e+01 2.622604e-06
    endloop
  endfacet
  facet normal -8.191511e-01 5.735778e-01 0.000000e+00
    outer loop
      vertex -3.445446e+01 1.827904e+01 2.622604e-06
      vertex -3.813857e+01 1.301761e+01 0.000000e+00
      vertex -3.813857e+01 1.301761e+01 2.105599e+00
    endloop
  endfacet
  facet normal -8.191511e-01 5.735778e-01 0.000000e+00
    outer loop
      vertex -3.813857e+01 1.301761e+01 2.105599e+00
      vertex -3.445446e+01 1.827904e+01 2.105602e+00
      vertex -3.445446e+01 1.827904e+01 2.622604e-06
    endloop
  endfacet
  facet normal -9.063081e-01 4.226178e-01 0.000000e+00
    outer loop
      vertex -3.813857e+01 1.301761e+01 0.000000e+00
      vertex -4.085306e+01 7.196362e+00 0.000000e+00
      vertex -4.085306e+01 7.196362e+00 2.105599e+00
    endloop
  endfacet
  facet normal -9.063081e-01 4.226178e-01 0.000000e+00
    outer loop
      vertex -4.085306e+01 7.196362e+00 2.105599e+00
      vertex -3.813857e+01 1.301761e+01 2.105599e+00
      vertex -3.813857e+01 1.301761e+01 0.000000e+00
    endloop
  endfacet
  facet normal -9.659259e-01 2.588186e-01 0.000000e+00
    outer loop
      vertex -4.085306e+01 7.196362e+00 0.000000e+00
      vertex -4.251546e+01 9.921923e-01 0.000000e+00
      vertex -4.251546e+01 9.921923e-01 2.105599e+00
    endloop
  endfacet
  facet normal -9.659259e-01 2.588186e-01 0.000000e+00
    outer loop
      vertex -4.251546e+01 9.921923e-01 2.105599e+00
      vertex -4.085306e+01 7.196362e+00 2.105599e+00
      vertex -4.085306e+01 7.196362e+00 0.000000e+00
    endloop
  endfacet
  facet normal -9.961946e-01 8.715677e-02 0.000000e+00
    outer loop
      vertex -4.251546e+01 9.921923e-01 0.000000e+00
      vertex -4.307527e+01 -5.406396e+00 0.000000e+00
      vertex -4.307527e+01 -5.406396e+00 2.105599e+00
    endloop
  endfacet
  facet normal -9.961946e-01 8.715677e-02 0.000000e+00
    outer loop
      vertex -4.307527e+01 -5.406396e+00 2.105599e+00
      vertex -4.251546e+01 9.921923e-01 2.105599e+00
      vertex -4.251546e+01 9.921923e-01 0.000000e+00
    endloop
  endfacet
  facet normal -1.000000e+00 -1.753852e-07 0.000000e+00
    outer loop
      vertex -4.307527e+01 -5.406396e+00 0.000000e+00
      vertex -4.307526e+01 -2.715679e+01 0.000000e+00
      vertex -4.307526e+01 -2.715679e+01 2.105602e+00
    endloop
  endfacet
  facet normal -1.000000e+00 -1.753852e-07 0.000000e+00
    outer loop
      vertex -4.307526e+01 -2.715679e+01 2.105602e+00
      vertex -4.307527e+01 -5.406396e+00 2.105599e+00
      vertex -4.307527e+01 -5.406396e+00 0.000000e+00
    endloop
  endfacet
  facet normal 2.976350e-07 0.000000e+00 -1.000000e+00
    outer loop
      vertex -4.307526e+01 -2.844190e+01 5.893440e+00
      vertex -6.227265e+00 -2.844191e+01 5.893451e+00
      vertex -4.307526e+01 -2.926240e+01 5.893440e+00
    endloop
  endfacet
  facet normal -1.552878e-07 -1.000000e+00 0.000000e+00
    outer loop
      vertex -6.227265e+00 -2.844191e+01 5.893451e+00
      vertex -4.307526e+01 -2.844190e+01 5.893440e+00
      vertex -4.307526e+01 -2.844190e+01 4.213443e+00
    endloop
  endfacet
  facet normal -1.552878e-07 -1.000000e+00 -8.815114e-14
    outer loop
      vertex -4.307526e+01 -2.844190e+01 4.213443e+00
      vertex -6.227264e+00 -2.844191e+01 4.213450e+00
      vertex -6.227265e+00 -2.844191e+01 5.893451e+00
    endloop
  endfacet
  facet normal -1.000000e+00 0.000000e+00 0.000000e+00
    outer loop
      vertex -4.307526e+01 -2.926240e+01 5.893440e+00
      vertex -4.307526e+01 -2.844190e+01 5.893440e+00
      vertex -4.307526e+01 -2.844190e+01 4.213443e+00
    endloop
  endfacet
  facet normal -1.000000e+00 0.000000e+00 0.000000e+00
    outer loop
      vertex -4.307526e+01 -2.844190e+01 4.213443e+00
      vertex -4.307526e+01 -2.926240e+01 4.213443e+00
      vertex -4.307526e+01 -2.926240e+01 5.893440e+00
    endloop
  endfacet
  facet normal 1.000000e+00 0.000000e+00 0.000000e+00
    outer loop
      vertex 4.294092e+01 -2.844192e+01 5.893462e+00
      vertex 4.294092e+01 -2.926239e+01 5.893462e+00
      vertex 4.294092e+01 -2.926239e+01 4.213461e+00
    endloop
  endfacet
  facet normal 1.000000e+00 0.000000e+00 0.000000e+00
    outer loop
      vertex 4.294092e+01 -2.926239e+01 4.213461e+00
      vertex 4.294092e+01 -2.844192e+01 4.213461e+00
      vertex 4.294092e+01 -2.844192e+01 5.893462e+00
    endloop
  endfacet
  facet normal 1.551693e-07 1.000000e+00 0.000000e+00
    outer loop
      vertex -6.227265e+00 -2.844191e+01 5.893451e+00
      vertex 4.294092e+01 -2.844192e+01 5.893462e+00
      vertex 4.294092e+01 -2.844192e+01 4.213461e+00
    endloop
  endfacet
  facet normal 1.551693e-07 1.000000e+00 8.808387e-14
    outer loop
      vertex 4.294092e+01 -2.844192e+01 4.213461e+00
      vertex -6.227264e+00 -2.844191e+01 4.213450e+00
      vertex -6.227265e+00 -2.844191e+01 5.893451e+00
    endloop
  endfacet
  facet normal 6.652290e-08 -1.000000e+00 0.000000e+00
    outer loop
      vertex 4.294092e+01 -2.926239e+01 5.893462e+00
      vertex -4.307526e+01 -2.926240e+01 5.893440e+00
      vertex -4.307526e+01 -2.926240e+01 4.213443e+00
    endloop
  endfacet
  facet normal 6.652290e-08 -1.000000e+00 0.000000e+00
    outer loop
      vertex -4.307526e+01 -2.926240e+01 4.213443e+00
      vertex 4.294092e+01 -2.926239e+01 4.213461e+00
      vertex 4.294092e+01 -2.926239e+01 5.893462e+00
    endloop
  endfacet
  facet normal -6.547894e-08 6.590981e-01 7.520570e-01
    outer loop
      vertex -6.227264e+00 -2.844191e+01 4.213450e+00
      vertex 4.294092e+01 -2.844192e+01 4.213461e+00
      vertex 4.294092e+01 -2.603679e+01 2.105621e+00
    endloop
  endfacet
  facet normal -2.188865e-07 6.590999e-01 7.520554e-01
    outer loop
      vertex 4.294092e+01 -2.603679e+01 2.105621e+00
      vertex -6.227264e+00 -2.603679e+01 2.105610e+00
      vertex -6.227264e+00 -2.844191e+01 4.213450e+00
    endloop
  endfacet
  facet normal 1.000000e+00 0.000000e+00 0.000000e+00
    outer loop
      vertex 4.294092e+01 -2.844192e+01 4.213461e+00
      vertex 4.294092e+01 -2.926239e+01 4.213461e+00
      vertex 4.294092e+01 -2.926239e+01 2.105621e+00
    endloop
  endfacet
  facet normal 1.000000e+00 0.000000e+00 0.000000e+00
    outer loop
      vertex 4.294092e+01 -2.926239e+01 2.105621e+00
      vertex 4.294092e+01 -2.603679e+01 2.105621e+00
      vertex 4.294092e+01 -2.844192e+01 4.213461e+00
    endloop
  endfacet
  facet normal -1.000000e+00 0.000000e+00 0.000000e+00
    outer loop
      vertex -4.307526e+01 -2.926240e+01 4.213443e+00
      vertex -4.307526e+01 -2.844190e+01 4.213443e+00
      vertex -4.307526e+01 -2.715679e+01 2.105602e+00
    endloop
  endfacet
  facet normal -1.000000e+00 0.000000e+00 0.000000e+00
    outer loop
      vertex -4.307526e+01 -2.715679e+01 2.105602e+00
      vertex -4.307526e+01 -2.926240e+01 2.105602e+00
      vertex -4.307526e+01 -2.926240e+01 4.213443e+00
    endloop
  endfacet
  facet normal -2.480556e-08 -8.538232e-01 -5.205630e-01
    outer loop
      vertex -6.227264e+00 -2.844191e+01 4.213450e+00
      vertex -4.307526e+01 -2.844190e+01 4.213443e+00
      vertex -4.307526e+01 -2.715679e+01 2.105602e+00
    endloop
  endfacet
  facet normal 2.002946e-02 -6.589677e-01 -7.519045e-01
    outer loop
      vertex -4.307526e+01 -2.715679e+01 2.105602e+00
      vertex -6.227264e+00 -2.603679e+01 2.105610e+00
      vertex -6.227264e+00 -2.844191e+01 4.213450e+00
    endloop
  endfacet
  facet normal -1.000000e+00 0.000000e+00 0.000000e+00
    outer loop
      vertex -4.643526e+01 -2.715679e+01 0.000000e+00
      vertex -4.643526e+01 -2.926240e+01 0.000000e+00
      vertex -4.643526e+01 -2.926240e+01 2.105599e+00
    endloop
  endfacet
  facet normal -1.000000e+00 0.000000e+00 0.000000e+00
    outer loop
      vertex -4.643526e+01 -2.926240e+01 2.105599e+00
      vertex -4.643526e+01 -2.715679e+01 2.105599e+00
      vertex -4.643526e+01 -2.715679e+01 0.000000e+00
    endloop
  endfacet
  facet normal 0.000000e+00 -1.000000e+00 0.000000e+00
    outer loop
      vertex -4.643526e+01 -2.926240e+01 2.105599e+00
      vertex -4.643526e+01 -2.926240e+01 0.000000e+00
      vertex -4.307526e+01 -2.926240e+01 0.000000e+00
    endloop
  endfacet
  facet normal 0.000000e+00 -1.000000e+00 0.000000e+00
    outer loop
      vertex -4.307526e+01 -2.926240e+01 0.000000e+00
      vertex -4.307526e+01 -2.926240e+01 2.105602e+00
      vertex -4.643526e+01 -2.926240e+01 2.105599e+00
    endloop
  endfacet
  facet normal -8.514957e-07 0.000000e+00 1.000000e+00
    outer loop
      vertex -4.643526e+01 -2.715679e+01 2.105599e+00
      vertex -4.643526e+01 -2.926240e+01 2.105599e+00
      vertex -4.307526e+01 -2.926240e+01 2.105602e+00
    endloop
  endfacet
  facet normal -8.514957e-07 0.000000e+00 1.000000e+00
    outer loop
      vertex -4.307526e+01 -2.926240e+01 2.105602e+00
      vertex -4.307526e+01 -2.715679e+01 2.105602e+00
      vertex -4.643526e+01 -2.715679e+01 2.105599e+00
    endloop
  endfacet
  facet normal 0.000000e+00 0.000000e+00 -1.000000e+00
    outer loop
      vertex -4.643526e+01 -2.926240e+01 0.000000e+00
      vertex -4.643526e+01 -2.715679e+01 0.000000e+00
      vertex -4.307526e+01 -2.715679e+01 0.000000e+00
    endloop
  endfacet
  facet normal 0.000000e+00 0.000000e+00 -1.000000e+00
    outer loop
      vertex -4.307526e+01 -2.715679e+01 0.000000e+00
      vertex -4.307526e+01 -2.926240e+01 0.000000e+00
      vertex -4.643526e+01 -2.926240e+01 0.000000e+00
    endloop
  endfacet
  facet normal 0.000000e+00 1.000000e+00 0.000000e+00
    outer loop
      vertex -4.643526e+01 -2.715679e+01 0.000000e+00
      vertex -4.643526e+01 -2.715679e+01 2.105599e+00
      vertex -4.307526e+01 -2.715679e+01 2.105602e+00
    endloop
  endfacet
  facet normal 0.000000e+00 1.000000e+00 0.000000e+00
    outer loop
      vertex -4.307526e+01 -2.715679e+01 2.105602e+00
      vertex -4.307526e+01 -2.715679e+01 0.000000e+00
      vertex -4.643526e+01 -2.715679e+01 0.000000e+00
    endloop
  endfacet
  facet normal -7.758467e-08 1.000000e+00 -3.513987e-14
    outer loop
      vertex -6.227264e+00 -2.603679e+01 2.105610e+00
      vertex 4.294092e+01 -2.603679e+01 2.145767e-05
      vertex -6.227263e+00 -2.603679e+01 1.072884e-05
    endloop
  endfacet
  facet normal -7.758467e-08 1.000000e+00 0.000000e+00
    outer loop
      vertex -6.227264e+00 -2.603679e+01 2.105610e+00
      vertex 4.294092e+01 -2.603679e+01 2.105621e+00
      vertex 4.294092e+01 -2.603679e+01 2.145767e-05
    endloop
  endfacet
endsolid Default
